HIERARCHY
ROOT root
{
	OFFSET	0	13.1	24.9
	CHANNELS 6  Xposition Yposition Zposition Xrotation Yrotation Zrotation
	JOINT spine_1
	{
		OFFSET	0	9.99999	0
		CHANNELS 3  Xrotation Yrotation Zrotation
		JOINT spine_2
		{
			OFFSET	0	112	-10
			CHANNELS 3  Xrotation Yrotation Zrotation
			JOINT spine_3
			{
				OFFSET	0	206.5	19.3
				CHANNELS 3  Xrotation Yrotation Zrotation
				JOINT spine_4
				{
					OFFSET	0	110.4	14.6
					CHANNELS 3  Xrotation Yrotation Zrotation
					JOINT neck_1
					{
						OFFSET	0	71.8	-50.3
						CHANNELS 3  Xrotation Yrotation Zrotation
						JOINT neck_2
						{
							OFFSET	0	86.2	-25.8
							CHANNELS 3  Xrotation Yrotation Zrotation
							JOINT head_ee
							{
								OFFSET	0	179.8	-8.7
								CHANNELS 3  Xrotation Yrotation Zrotation
								End Site
								{
									OFFSET	1	0	0
								}
							}
						}
					}
					JOINT left_clavicle
					{
						OFFSET	-43.2	22.4	-70.8
						CHANNELS 3  Xrotation Yrotation Zrotation
						JOINT left_shoulder
						{
							OFFSET	-93.9	-5.79999	48.7
							CHANNELS 3  Xrotation Yrotation Zrotation
							JOINT left_elbow
							{
								OFFSET	-291.4	-30.8	15.2
								CHANNELS 3  Xrotation Yrotation Zrotation
								JOINT left_lowarm_twist
								{
									OFFSET	-110.7	-3.89999	13.6
									CHANNELS 3  Xrotation Yrotation Zrotation
									JOINT left_hand
									{
										OFFSET	-110.7	-3.89999	13.6
										CHANNELS 3  Xrotation Yrotation Zrotation
										JOINT left_ee
										{
											OFFSET	-80.8	-5.10001	12.1
											CHANNELS 3  Xrotation Yrotation Zrotation
											End Site
											{
												OFFSET	1	0	0
											}
										}
									}
								}
							}
						}
					}
					JOINT right_clavicle
					{
						OFFSET	43.2	22.4	-70.8
						CHANNELS 3  Xrotation Yrotation Zrotation
						JOINT right_shoulder
						{
							OFFSET	93.9	-5.79999	48.7
							CHANNELS 3  Xrotation Yrotation Zrotation
							JOINT right_elbow
							{
								OFFSET	291.4	-30.8	15.2
								CHANNELS 3  Xrotation Yrotation Zrotation
								JOINT right_lowarm_twist
								{
									OFFSET	110.7	-3.89999	13.6
									CHANNELS 3  Xrotation Yrotation Zrotation
									JOINT right_hand
									{
										OFFSET	110.7	-3.89999	13.6
										CHANNELS 3  Xrotation Yrotation Zrotation
										JOINT right_ee
										{
											OFFSET	80.8	-5.10001	12.1
											CHANNELS 3  Xrotation Yrotation Zrotation
											End Site
											{
												OFFSET	1	0	0
											}
										}
									}
								}
							}
						}
					}
				}
			}
		}
	}
	JOINT left_hip
	{
		OFFSET	-82.8	-127.5	0.300001
		CHANNELS 3  Xrotation Yrotation Zrotation
		JOINT left_knee
		{
			OFFSET	-28.2	-396.7	2.2
			CHANNELS 3  Xrotation Yrotation Zrotation
			JOINT left_ankle
			{
				OFFSET	-11.7	-411.3	35.4
				CHANNELS 3  Xrotation Yrotation Zrotation
				JOINT left_toes
				{
					OFFSET	0	-60	-88.6
					CHANNELS 3  Xrotation Yrotation Zrotation
					JOINT left_foot_ee
					{
						OFFSET	-22.5	-16.5	-42.2
						CHANNELS 3  Xrotation Yrotation Zrotation
						End Site
						{
							OFFSET	1	0	0
						}
					}
				}
			}
		}
	}
	JOINT right_hip
	{
		OFFSET	82.8	-127.5	0.300001
		CHANNELS 3  Xrotation Yrotation Zrotation
		JOINT right_knee
		{
			OFFSET	28.2	-396.7	2.2
			CHANNELS 3  Xrotation Yrotation Zrotation
			JOINT right_ankle
			{
				OFFSET	11.7	-411.3	35.4
				CHANNELS 3  Xrotation Yrotation Zrotation
				JOINT right_toes
				{
					OFFSET	0	-60	-88.6
					CHANNELS 3  Xrotation Yrotation Zrotation
					JOINT right_foot_ee
					{
						OFFSET	22.5	-16.5	-42.2
						CHANNELS 3  Xrotation Yrotation Zrotation
						End Site
						{
							OFFSET	1	0	0
						}
					}
				}
			}
		}
	}
}
MOTION
Frames: 13
Frame Time: 0.02
2854.11631441 686.542 -1662.55844504 0.826915876735 50.8019286563 2.64823702372 0.955593 0.0895131 -0.328753 0.955647 0.110251 -0.322391 0.955023 0.170658 -0.294902 0.954922 0.121942 -0.318153 -20.0015 16.2376 7.50595 -20.9972 27.5344 14.0607 -0.0 0.0 -0.0 9.96201 18.4607 17.6488 -26.0232 -37.5302 37.6238 1.23319 -31.4188 0.346864 -5.38218 -0.220443 0.651481 -2.22189 -0.996687 -15.4861 -0.0 0.0 -0.0 10.1952 20.8419 -19.7775 -17.6013 18.0017 -60.7537 1.03924 27.2392 -0.251802 27.8054 -0.128953 3.51492 0.712527 -8.79859 -8.27729 0.0 0.0 0.0 -2.44803 17.7463 1.54202 5.39048 -0.259208 -0.786076 19.8083 -2.59963 -2.74633 -6.36058 0.0 0.0 -0.0 0.0 -0.0 19.0875 19.5109 -5.40562 -37.0955 0.292403 -5.58737 0.748862 -6.18817 0.109472 -31.423 0.0 0.0 0.0 0.0 0.0 
2841.80122016 685.528 -1643.96269379 0.632552130154 52.6610376041 2.68251194435 0.91441 -0.0651935 -0.271278 0.91445 -0.0477994 -0.274877 0.914694 0.00658892 -0.278924 0.914587 -0.0375444 -0.276464 -18.5085 16.2503 5.15748 -19.5522 28.557 11.5263 -0.0 0.0 -0.0 10.0783 20.09 17.5687 -24.0754 -37.071 37.2059 1.42822 -35.2773 0.45414 -8.55793 -0.378933 1.02535 -2.21292 0.217728 -14.8473 -0.0 0.0 -0.0 10.0945 21.4902 -19.5002 -18.6369 16.199 -60.302 0.983194 25.9677 -0.226702 29.8162 -0.0719986 3.76545 0.884139 -9.52486 -9.67521 0.0 0.0 0.0 -3.15006 21.6561 3.07705 5.88521 -0.286689 -0.856957 19.636 -1.61875 -2.71714 -9.33228 0.0 0.0 -0.0 0.0 -0.0 20.2281 20.2911 -6.56371 -34.7912 0.169062 -5.25552 6.7581 -9.01291 0.970994 -35.7079 0.0 0.0 0.0 0.0 0.0 
2831.77889897 680.897 -1632.03274485 1.02349259325 53.9695146884 2.14456851635 0.893833 -0.135387 -0.220028 0.893852 -0.121112 -0.228198 0.894349 -0.0743167 -0.247425 0.894281 -0.11246 -0.232583 -19.1782 15.1661 3.22607 -20.2553 27.5367 9.47416 -0.0 0.0 -0.0 10.2003 21.2605 17.5557 -21.5268 -37.1076 37.0521 1.64229 -39.1268 0.583647 -9.75419 -0.443983 1.16385 -1.62855 1.93871 -10.0517 -0.0 0.0 -0.0 10.1732 22.2632 -19.6122 -19.8382 14.8094 -60.0892 0.9088 24.2366 -0.195137 31.0382 -0.0331004 3.91669 0.354347 -13.9597 -7.95954 0.0 0.0 0.0 -5.46381 25.091 5.10846 6.61566 -0.328385 -0.961179 21.2476 0.347872 -2.90369 -11.1215 0.0 0.0 -0.0 0.0 -0.0 23.7038 18.9556 -7.52685 -34.2269 0.140905 -5.17353 8.73185 -10.4847 1.2477 -38.704 0.0 0.0 0.0 0.0 0.0 
2821.25175521 679.083 -1628.27171873 1.30008690537 54.3446315507 1.51522133714 0.962951 -0.100806 0.0178588 0.962945 -0.101738 0.0114081 0.962923 -0.102021 -0.00851627 0.962938 -0.102085 0.00770287 -20.2301 15.8377 3.66621 -21.5136 28.691 10.5203 -0.0 0.0 -0.0 10.0354 22.2796 17.113 -19.5342 -36.6861 36.7786 1.79564 -41.6495 0.683035 -11.1797 -0.525264 1.32709 -1.27167 3.75662 -6.83241 -0.0 0.0 -0.0 10.1504 22.6221 -19.53 -20.4255 13.9247 -61.1986 0.795182 21.4999 -0.150971 33.0768 0.0389493 4.16706 0.137624 -17.1679 -7.83299 0.0 0.0 0.0 -6.6625 24.4581 5.85689 6.68367 -0.332335 -0.970857 24.2708 1.14261 -3.26115 -13.1162 0.0 0.0 -0.0 0.0 -0.0 25.6091 18.5645 -7.67425 -33.4833 0.105037 -5.06508 12.4725 -10.798 1.7597 -40.1553 0.0 0.0 0.0 0.0 0.0 
2793.38530494 677.281 -1621.71477589 0.788189035665 52.9534235999 1.03897886957 1.31557 0.106885 -0.0405335 1.31556 0.109247 -0.03365 1.3155 0.113621 -0.012549 1.31551 0.110214 -0.0303359 -21.8835 16.0834 3.3094 -23.4441 29.4434 10.8565 -0.0 0.0 -0.0 9.54281 22.4424 16.3306 -15.939 -37.5838 36.0514 2.16105 -46.9447 0.938502 -12.6498 -0.613333 1.49331 -1.2317 6.13561 -5.49431 -0.0 0.0 -0.0 10.441 23.5537 -20.0987 -22.5682 11.6469 -62.4377 0.451306 12.6022 -0.0498338 35.7106 0.145159 4.48651 -0.483801 -22.4061 -6.14272 0.0 0.0 0.0 -10.8967 33.5127 10.4611 7.7332 -0.394747 -1.1196 25.8655 1.80656 -3.44219 -15.69 0.0 0.0 -0.0 0.0 -0.0 28.8505 16.3156 -8.12955 -25.5198 -0.189434 -3.87941 21.3413 -3.188 2.90198 -38.3238 0.0 0.0 0.0 0.0 0.0 
2793.6943625 677.281 -1619.28563182 0.794875233263 53.3163262201 1.03062168656 1.31557 0.106885 -0.0405335 1.31556 0.109247 -0.03365 1.3155 0.113621 -0.012549 1.31551 0.110214 -0.0303359 -21.8835 16.0834 3.3094 -23.4441 29.4434 10.8565 -0.0 0.0 -0.0 9.54281 22.4424 16.3306 -15.939 -37.5838 36.0514 2.16105 -46.9447 0.938502 -12.6498 -0.613333 1.49331 -1.2317 6.13561 -5.49431 -0.0 0.0 -0.0 10.441 23.5537 -20.0987 -22.5682 11.6469 -62.4377 0.451306 12.6022 -0.0498338 35.7106 0.145159 4.48651 -0.483801 -22.4061 -6.14272 0.0 0.0 0.0 -10.8967 33.5127 10.4611 7.7332 -0.394747 -1.1196 25.8655 1.80656 -3.44219 -15.69 0.0 0.0 -0.0 0.0 -0.0 28.8505 16.3156 -8.12955 -25.5198 -0.189434 -3.87941 21.3413 -3.188 2.90198 -38.3238 0.0 0.0 0.0 0.0 0.0 
2785.20005882 677.836 -1618.92126672 0.894118373248 52.1438899687 0.792679525311 1.39274 0.293802 -0.0832779 1.39269 0.298506 -0.0644136 1.39235 0.30528 -0.00765552 1.39247 0.30024 -0.0557732 -22.291 16.4908 3.95095 -23.9461 29.9547 11.7919 -0.0 0.0 -0.0 9.41802 22.7436 16.0912 -14.9149 -37.8087 35.8614 2.26836 -48.3264 1.0178 -12.995 -0.63463 1.53201 -1.25015 6.92745 -5.25758 -0.0 0.0 -0.0 10.3857 23.2522 -20.0021 -22.9554 10.9814 -62.7481 0.378787 10.6276 -0.0352311 36.3554 0.173391 4.56395 -0.675259 -24.4574 -5.85992 0.0 0.0 0.0 -12.2417 34.0309 11.5147 6.59897 -0.327417 -0.958803 26.3746 1.59574 -3.50122 -16.118 0.0 0.0 -0.0 0.0 -0.0 29.8866 15.3441 -8.874 -22.9326 -0.249295 -3.48692 20.9858 -1.84502 2.86384 -38.2536 0.0 0.0 0.0 0.0 0.0 
2773.89895531 678.35 -1621.85460149 0.668639916996 51.4472663778 0.493492647314 1.44392 0.250847 0.0355393 1.44389 0.248077 0.0514293 1.44412 0.234234 0.0965474 1.44419 0.246542 0.0583426 -23.2096 16.6781 4.26253 -25.0035 30.2282 12.4853 -0.0 0.0 -0.0 9.18527 22.1863 15.8287 -13.1896 -37.3222 36.6788 2.38572 -49.7561 1.10643 -14.1736 -0.709096 1.66317 -1.57053 8.85362 -6.46136 -0.0 0.0 -0.0 10.3289 23.3507 -19.8653 -23.3594 10.481 -62.8034 0.335378 9.43294 -0.0276703 36.7774 0.192344 4.61447 -1.04718 -26.8976 -4.77708 0.0 0.0 0.0 -12.4821 34.6407 11.7707 6.00711 -0.293555 -0.874385 24.7006 0.511288 -3.31507 -16.9141 0.0 0.0 -0.0 0.0 -0.0 30.4161 15.2156 -8.12413 -18.3589 -0.31156 -2.78807 18.4916 0.456556 2.5651 -36.3185 0.0 0.0 0.0 0.0 0.0 
2773.75548079 678.35 -1623.09020297 0.666081765154 51.2716930645 0.496767794434 1.44392 0.250847 0.0355393 1.44389 0.248077 0.0514293 1.44412 0.234234 0.0965474 1.44419 0.246542 0.0583426 -23.2096 16.6781 4.26253 -25.0035 30.2282 12.4853 -0.0 0.0 -0.0 9.18527 22.1863 15.8287 -13.1896 -37.3222 36.6788 2.38572 -49.7561 1.10643 -14.1736 -0.709096 1.66317 -1.57053 8.85362 -6.46136 -0.0 0.0 -0.0 10.3289 23.3507 -19.8653 -23.3594 10.481 -62.8034 0.335378 9.43294 -0.0276703 36.7774 0.192344 4.61447 -1.04718 -26.8976 -4.77708 0.0 0.0 0.0 -12.4821 34.6407 11.7707 6.00711 -0.293555 -0.874385 24.7006 0.511288 -3.31507 -16.9141 0.0 0.0 -0.0 0.0 -0.0 30.4161 15.2156 -8.12413 -18.3589 -0.31156 -2.78807 18.4916 0.456556 2.5651 -36.3185 0.0 0.0 0.0 0.0 0.0 
2758.84325188 681.924 -1632.64555937 -0.542282885653 49.3164939069 1.05675443878 0.8893 0.0892171 0.132572 0.889306 0.0806004 0.13798 0.889505 0.0521512 0.151047 0.889482 0.0753518 0.140915 -23.8775 17.8726 9.32635 -25.534 30.4006 17.8749 -0.0 0.0 -0.0 9.98569 21.0182 17.2607 -6.45459 -32.7742 35.9357 2.7687 -53.8939 1.4077 -15.071 -0.767604 1.76201 -2.55757 16.9383 -8.75153 -0.0 0.0 -0.0 11.0249 23.5482 -21.4171 -23.8398 8.81222 -61.6868 0.350748 9.85695 -0.0302454 41.2052 0.413427 5.13561 -1.07263 -27.5409 -4.90751 0.0 0.0 0.0 -12.4991 34.0643 12.0798 6.76493 -0.337069 -0.982412 20.9939 -4.09798 -2.90764 -19.3463 0.0 0.0 -0.0 0.0 -0.0 32.6532 13.9078 -10.2019 -4.29423 -0.152834 -0.641159 -5.94689 7.34444 -0.916349 -33.3583 0.0 0.0 0.0 0.0 0.0 
2758.58007564 681.924 -1635.78421841 -0.53760572657 48.8866122339 1.05056670988 0.8893 0.0892171 0.132572 0.889306 0.0806004 0.13798 0.889505 0.0521512 0.151047 0.889482 0.0753518 0.140915 -23.8775 17.8726 9.32635 -25.534 30.4006 17.8749 -0.0 0.0 -0.0 9.98569 21.0182 17.2607 -6.45459 -32.7742 35.9357 2.7687 -53.8939 1.4077 -15.071 -0.767604 1.76201 -2.55757 16.9383 -8.75153 -0.0 0.0 -0.0 11.0249 23.5482 -21.4171 -23.8398 8.81222 -61.6868 0.350748 9.85695 -0.0302454 41.2052 0.413427 5.13561 -1.07263 -27.5409 -4.90751 0.0 0.0 0.0 -12.4991 34.0643 12.0798 6.76493 -0.337069 -0.982412 20.9939 -4.09798 -2.90764 -19.3463 0.0 0.0 -0.0 0.0 -0.0 32.6532 13.9078 -10.2019 -4.29423 -0.152834 -0.641159 -5.94689 7.34444 -0.916349 -33.3583 0.0 0.0 0.0 0.0 0.0 
2758.20245765 681.924 -1640.89151553 -0.530233640531 48.1876391039 1.04072937701 0.8893 0.0892171 0.132572 0.889306 0.0806004 0.13798 0.889505 0.0521512 0.151047 0.889482 0.0753518 0.140915 -23.8775 17.8726 9.32635 -25.534 30.4006 17.8749 -0.0 0.0 -0.0 9.98569 21.0182 17.2607 -6.45459 -32.7742 35.9357 2.7687 -53.8939 1.4077 -15.071 -0.767604 1.76201 -2.55757 16.9383 -8.75153 -0.0 0.0 -0.0 11.0249 23.5482 -21.4171 -23.8398 8.81222 -61.6868 0.350748 9.85695 -0.0302454 41.2052 0.413427 5.13561 -1.07263 -27.5409 -4.90751 0.0 0.0 0.0 -12.4991 34.0643 12.0798 6.76493 -0.337069 -0.982412 20.9939 -4.09798 -2.90764 -19.3463 0.0 0.0 -0.0 0.0 -0.0 32.6532 13.9078 -10.2019 -4.29423 -0.152834 -0.641159 -5.94689 7.34444 -0.916349 -33.3583 0.0 0.0 0.0 0.0 0.0 
2732.41751642 680.433 -1646.30120722 0.0954517332555 49.0365466708 0.638494030668 0.178949 -0.0564308 0.0800297 0.17895 -0.0614089 0.0762767 0.178867 -0.075876 0.0619034 0.178867 -0.0651472 0.0731097 -23.1981 18.108 9.89875 -24.7458 30.5103 18.2608 -0.0 0.0 -0.0 10.1811 20.0443 17.742 -2.60244 -31.3681 36.9502 3.40839 -59.3488 1.94248 -16.7217 -0.879259 1.94141 -3.31947 22.2558 -10.4486 -0.0 0.0 -0.0 11.821 23.5089 -23.2318 -24.91 7.3409 -61.2615 0.322209 9.06883 -0.0255532 43.93 0.569302 5.44738 -0.934398 -28.9917 -6.26018 0.0 0.0 0.0 -13.0582 33.5809 10.9066 5.92726 -0.289053 -0.86297 24.8517 -9.5248 -3.44975 -24.1638 0.0 0.0 -0.0 0.0 -0.0 33.72 13.3576 -12.4513 2.11926 0.0930539 0.311862 -17.8617 19.9911 -3.05906 -29.2952 0.0 0.0 0.0 0.0 0.0 
